# xmcd
#
# Track frame offsets:
#	150
#	16206
#	32072
#	48273
#	61604
#	77705
#	89862
#	104935
#	121024
#	136829
#	153230
#
# Disc length: 2262 seconds
#
# Revision: 1
# Processed by: cddbd v1.5.2PL0 Copyright (c) Steve Scherf et al.
# Submitted via: audiograbber 1.83.01
#
DISCID=8608d40b
DTITLE=Rodney Atkins - It's America
DYEAR=2009
DGENRE=Country
TTITLE0=Tell A Country Boy
TTITLE1=Chasin' Girls
TTITLE2=Got It Good
TTITLE3=Best Times
TTITLE4=Friends With Tractors
TTITLE5=15 Minutes
TTITLE6=Simple Things
TTITLE7=It's America
TTITLE8=Rockin' Of The Cradle
TTITLE9=When It's My Time
TTITLE10=The River Just Knows
EXTD=
EXTT0=
EXTT1=
EXTT2=
EXTT3=
EXTT4=
EXTT5=
EXTT6=
EXTT7=
EXTT8=
EXTT9=
EXTT10=
PLAYORDER=
